<?xml version="1.0" standalone="no"?>
<!DOCTYPE svg PUBLIC "-//W3C//DTD SVG 20010904//EN"
 "http://www.w3.org/TR/2001/REC-SVG-20010904/DTD/svg10.dtd">
<svg version="1.0" xmlns="http://www.w3.org/2000/svg"
 width="512.000000pt" height="512.000000pt" viewBox="0 0 512.000000 512.000000"
 preserveAspectRatio="xMidYMid meet">

<g transform="translate(0.000000,512.000000) scale(0.100000,-0.100000)"
fill="#000000" stroke="none">
<path d="M320 5106 c-147 -41 -267 -162 -306 -310 -20 -76 -20 -4396 0 -4472
41 -155 171 -280 324 -313 85 -18 2170 -15 2239 3 156 42 277 164 312 317 7
28 11 409 11 1052 l0 1007 -85 0 -85 0 0 -1007 c0 -992 -1 -1009 -21 -1053
-25 -55 -71 -105 -124 -133 l-40 -22 -1095 0 c-1049 0 -1096 1 -1130 19 -49
26 -98 74 -123 121 l-22 40 0 2205 0 2205 22 40 c25 47 74 96 123 121 27 14
64 19 158 22 l122 4 0 -73 c1 -117 47 -196 142 -243 l52 -26 655 0 656 0 50
24 c98 46 144 125 145 245 l0 73 123 -4 c100 -3 129 -8 162 -25 53 -28 99 -78
124 -133 19 -42 21 -65 21 -367 l0 -323 85 0 85 0 0 323 c0 180 -5 341 -11
366 -35 153 -167 285 -320 320 -69 16 -2191 13 -2249 -3z m1810 -216 c0 -51
-4 -65 -25 -85 l-24 -25 -631 0 -631 0 -24 25 c-21 20 -25 34 -25 85 l0 60
680 0 680 0 0 -60z"/>
<path d="M1197 3923 c-4 -3 -7 -312 -7 -685 l0 -678 1965 0 1965 0 0 685 0
685 -1958 0 c-1077 0 -1962 -3 -1965 -7z m3753 -683 l0 -510 -1790 0 -1790 0
0 510 0 510 1790 0 1790 0 0 -510z"/>
<path d="M1790 3485 l0 -94 -75 44 c-42 25 -80 45 -85 45 -11 0 -90 -132 -84
-142 3 -4 38 -25 79 -48 42 -23 73 -45 70 -50 -2 -4 -38 -27 -80 -51 l-75 -42
36 -66 c20 -36 40 -70 44 -74 3 -4 42 13 86 38 l79 45 3 -95 3 -95 84 0 85 0
0 96 c0 73 3 95 13 91 6 -2 43 -23 82 -45 38 -22 72 -39 76 -36 8 5 79 129 79
138 0 3 -36 27 -81 52 l-81 47 81 46 c44 25 81 50 81 54 0 16 -75 137 -85 137
-5 0 -44 -20 -85 -45 l-75 -45 -3 95 -3 95 -84 0 -85 0 0 -95z"/>
<path d="M2650 3490 c0 -58 -4 -90 -11 -90 -6 0 -41 18 -79 40 -38 22 -73 40
-78 40 -10 0 -82 -120 -82 -137 0 -5 34 -28 75 -52 41 -23 75 -45 75 -49 0 -4
-36 -27 -79 -52 l-79 -45 40 -70 c23 -38 42 -72 44 -74 2 -2 39 17 82 43 43
25 82 46 85 46 4 0 7 -43 7 -95 l0 -95 85 0 84 0 3 95 3 95 78 -46 c44 -25 80
-44 81 -42 3 4 78 131 82 139 2 3 -30 25 -71 48 -41 23 -77 46 -80 50 -2 5 31
29 75 55 l79 46 -40 70 c-23 38 -44 70 -49 70 -5 0 -39 -18 -78 -40 -38 -22
-72 -40 -76 -40 -3 0 -6 41 -6 90 l0 90 -85 0 -85 0 0 -90z"/>
<path d="M3498 3486 l-3 -94 -75 44 c-41 24 -79 44 -85 44 -9 0 -77 -110 -82
-135 -2 -5 34 -31 79 -56 l81 -47 -81 -47 c-45 -26 -82 -49 -82 -52 0 -2 18
-36 40 -74 l41 -69 29 15 c17 9 53 29 80 45 28 17 53 30 55 30 3 0 5 -43 5
-95 l0 -95 85 0 85 0 0 95 c0 52 2 95 5 95 2 0 27 -13 55 -30 27 -16 63 -36
79 -45 l29 -15 41 71 c23 39 41 72 41 74 0 2 -37 24 -82 50 l-81 47 39 24 c21
13 58 35 82 49 l43 25 -32 58 c-18 31 -37 64 -42 73 -9 14 -21 10 -94 -32
l-83 -48 0 94 0 95 -85 0 -84 0 -3 -94z"/>
<path d="M4350 3485 l0 -94 -75 44 c-42 25 -80 45 -85 45 -11 0 -90 -132 -84
-142 3 -4 38 -25 79 -48 42 -23 73 -45 70 -50 -2 -4 -38 -27 -80 -51 l-75 -42
36 -66 c20 -36 40 -70 44 -74 3 -4 42 13 86 38 l79 45 3 -95 3 -95 84 0 85 0
0 96 c0 73 3 95 13 91 6 -2 43 -23 82 -45 38 -22 72 -39 76 -36 8 5 79 129 79
138 0 3 -36 27 -81 52 l-81 47 81 46 c44 25 81 50 81 54 0 16 -75 137 -85 137
-5 0 -44 -20 -85 -45 l-75 -45 -3 95 -3 95 -84 0 -85 0 0 -95z"/>
<path d="M340 935 l0 -85 1110 0 1110 0 0 85 0 85 -1110 0 -1110 0 0 -85z"/>
<path d="M1373 756 c-139 -44 -215 -214 -156 -347 22 -50 88 -114 139 -135 47
-20 150 -17 199 5 168 76 201 307 62 426 -68 58 -159 77 -244 51z m116 -171
c31 -15 54 -65 44 -93 -32 -92 -163 -78 -163 18 0 39 13 61 45 78 27 15 41 15
74 -3z"/>
</g>
</svg>
