<?xml version="1.0" standalone="no"?>
<!DOCTYPE svg PUBLIC "-//W3C//DTD SVG 20010904//EN"
 "http://www.w3.org/TR/2001/REC-SVG-20010904/DTD/svg10.dtd">
<svg version="1.0" xmlns="http://www.w3.org/2000/svg"
 width="512.000000pt" height="512.000000pt" viewBox="0 0 512.000000 512.000000"
 preserveAspectRatio="xMidYMid meet">

<g transform="translate(0.000000,512.000000) scale(0.100000,-0.100000)"
fill="#000000" stroke="none">
<path d="M152 4354 c-56 -28 -90 -63 -125 -128 l-22 -41 0 -1625 0 -1625 22
-41 c36 -67 70 -101 131 -131 l57 -28 2345 0 2345 0 57 28 c61 30 95 64 131
131 l22 41 0 1625 0 1625 -22 41 c-35 65 -69 100 -125 128 l-52 26 -2356 0
-2356 0 -52 -26z m4757 -139 c65 -33 61 79 61 -1655 0 -1741 5 -1620 -64
-1658 -29 -16 -183 -17 -2346 -17 -2280 0 -2315 0 -2347 20 -68 40 -63 -80
-63 1655 0 1721 -4 1614 58 1652 25 16 180 17 2350 18 2014 0 2327 -2 2351
-15z"/>
<path d="M491 3963 c-18 -9 -45 -34 -60 -57 l-26 -40 0 -956 0 -956 27 -41
c14 -22 43 -48 65 -59 36 -18 70 -19 778 -19 708 0 742 1 778 19 22 11 51 37
65 59 l27 41 0 956 0 956 -27 41 c-51 77 -5 73 -845 73 -675 0 -751 -2 -782
-17z m1507 -748 l2 -610 -32 40 c-53 68 -145 152 -212 195 l-63 41 24 61 c70
172 21 384 -118 512 -33 31 -77 65 -98 75 -149 77 -344 69 -480 -18 -189 -121
-270 -367 -188 -569 l24 -61 -65 -43 c-69 -45 -157 -125 -210 -193 l-32 -40 0
606 c0 333 3 609 7 612 3 4 329 6 722 5 l716 -3 3 -610z m-569 180 c60 -33
109 -86 143 -154 32 -65 32 -195 -1 -262 -32 -68 -81 -120 -142 -154 -50 -28
-62 -30 -154 -30 -92 0 -104 2 -154 30 -245 136 -217 493 46 591 25 9 67 13
123 11 71 -2 94 -8 139 -32z m-423 -674 c166 -111 388 -109 544 3 l50 36 58
-36 c213 -136 327 -336 339 -598 6 -108 4 -120 -12 -133 -28 -19 -1392 -19
-1420 0 -16 13 -18 25 -12 133 10 220 87 387 242 525 30 27 136 103 151 108 1
1 28 -17 60 -38z"/>
<path d="M2557 3562 c-24 -27 -22 -85 4 -108 16 -15 36 -19 89 -19 83 0 110
18 110 75 0 56 -22 70 -112 70 -60 0 -78 -4 -91 -18z"/>
<path d="M3010 3560 c-43 -43 -14 -113 52 -125 18 -3 380 -5 804 -3 743 3 773
4 793 22 27 25 29 86 3 109 -17 16 -89 17 -825 17 -794 0 -807 0 -827 -20z"/>
<path d="M2557 3062 c-24 -27 -22 -85 4 -108 20 -18 52 -19 1049 -19 997 0
1029 1 1049 19 27 25 29 86 3 109 -17 16 -105 17 -1054 17 -990 0 -1036 -1
-1051 -18z"/>
<path d="M2557 2562 c-24 -27 -22 -85 4 -108 20 -18 52 -19 1049 -19 997 0
1029 1 1049 19 27 25 29 86 3 109 -17 16 -105 17 -1054 17 -990 0 -1036 -1
-1051 -18z"/>
<path d="M3461 1863 c-18 -9 -45 -34 -60 -57 l-26 -40 0 -256 0 -256 27 -41
c53 -80 33 -78 643 -78 610 0 590 -2 643 78 l27 41 0 256 0 256 -27 41 c-50
75 -28 73 -645 73 -489 0 -552 -2 -582 -17z m1107 -348 c2 -189 1 -211 -15
-222 -22 -17 -983 -19 -1014 -3 -18 10 -19 23 -19 219 0 114 3 211 7 214 3 4
239 6 522 5 l516 -3 3 -210z"/>
<path d="M420 1258 c-23 -25 -26 -65 -6 -90 35 -46 140 -47 176 -1 25 33 25
54 -1 87 -18 23 -27 26 -84 26 -53 0 -68 -4 -85 -22z"/>
<path d="M860 1260 c-38 -38 -22 -100 31 -119 43 -15 1166 -15 1205 -1 55 21
71 78 34 118 l-21 22 -614 0 c-602 0 -615 0 -635 -20z"/>
</g>
</svg>
