<?xml version="1.0" standalone="no"?>
<!DOCTYPE svg PUBLIC "-//W3C//DTD SVG 20010904//EN"
 "http://www.w3.org/TR/2001/REC-SVG-20010904/DTD/svg10.dtd">
<svg version="1.0" xmlns="http://www.w3.org/2000/svg"
 width="512.000000pt" height="512.000000pt" viewBox="0 0 512.000000 512.000000"
 preserveAspectRatio="xMidYMid meet">

<g transform="translate(0.000000,512.000000) scale(0.100000,-0.100000)"
fill="#000000" stroke="none">
<path d="M2371 5110 c-626 -52 -1179 -307 -1616 -745 -347 -346 -586 -779
-689 -1245 -80 -365 -80 -755 0 -1120 191 -864 846 -1589 1689 -1865 274 -90
511 -128 805 -128 693 0 1315 258 1805 748 407 405 654 908 731 1485 22 167
22 473 0 640 -77 578 -323 1077 -731 1486 -402 403 -913 656 -1475 728 -150
20 -388 27 -519 16z m418 -1940 c405 -15 798 -58 1138 -126 155 -31 206 -52
233 -96 20 -32 20 -45 18 -389 l-3 -356 -27 -40 c-49 -74 -83 -83 -318 -83
-186 0 -207 2 -247 21 -67 33 -90 81 -117 251 -32 194 -41 225 -69 231 -12 3
-96 15 -187 26 -449 56 -851 56 -1300 0 -91 -11 -175 -23 -187 -26 -30 -7 -49
-68 -68 -218 -19 -147 -28 -177 -68 -222 -51 -58 -73 -63 -297 -63 -251 0
-288 12 -331 105 -17 36 -19 71 -19 378 0 377 2 388 64 427 45 27 241 68 526
110 268 38 506 60 765 69 116 4 215 8 220 9 6 1 129 -3 274 -8z"/>
</g>
</svg>
