<?xml version="1.0" standalone="no"?>
<!DOCTYPE svg PUBLIC "-//W3C//DTD SVG 20010904//EN"
 "http://www.w3.org/TR/2001/REC-SVG-20010904/DTD/svg10.dtd">
<svg version="1.0" xmlns="http://www.w3.org/2000/svg"
 width="512.000000pt" height="512.000000pt" viewBox="0 0 512.000000 512.000000"
 preserveAspectRatio="xMidYMid meet">

<g transform="translate(0.000000,512.000000) scale(0.100000,-0.100000)"
fill="#000000" stroke="none">
<path d="M3444 4816 c-26 -18 -244 -492 -244 -530 0 -34 41 -76 73 -76 49 0
72 34 186 285 120 260 123 274 79 315 -25 23 -65 26 -94 6z"/>
<path d="M3739 4541 c-37 -29 -309 -443 -309 -470 0 -25 50 -81 74 -81 43 0
71 32 211 242 146 221 160 252 132 289 -15 19 -50 39 -70 39 -8 0 -25 -9 -38
-19z"/>
<path d="M4001 4243 c-22 -21 -105 -109 -185 -195 -136 -146 -146 -160 -146
-196 0 -49 27 -76 77 -76 31 0 44 8 91 60 31 32 113 121 184 196 112 120 128
141 128 171 0 43 -34 77 -79 77 -23 0 -42 -10 -70 -37z"/>
<path d="M2928 4224 c-59 -18 -76 -35 -426 -410 l-289 -311 -11 -59 c-5 -32
-27 -161 -47 -285 l-38 -227 -842 -901 c-464 -496 -846 -908 -849 -917 -14
-36 -5 -63 36 -102 l41 -40 -46 -52 c-78 -87 -94 -186 -46 -281 21 -43 272
-283 332 -319 34 -20 55 -25 112 -25 83 1 119 16 187 83 l47 45 41 -36 c54
-50 88 -49 140 1 21 20 404 429 851 907 l812 870 241 57 c132 32 260 63 283
69 38 10 76 47 355 346 172 184 324 353 338 376 20 33 25 56 25 107 0 96 -24
136 -158 260 -62 58 -287 268 -500 467 -351 328 -393 364 -439 378 -62 18 -89
18 -150 -1z m159 -196 c251 -227 923 -864 928 -880 10 -29 -1 -58 -38 -101
l-32 -37 -528 492 -528 493 45 43 c60 56 81 55 153 -10z m223 -644 c286 -268
520 -488 520 -491 0 -9 -375 -403 -382 -401 -4 2 -226 208 -493 458 -267 250
-502 469 -522 486 l-35 31 188 201 c104 111 192 202 196 202 5 0 242 -219 528
-486z m-451 -564 c238 -222 429 -405 424 -407 -4 -1 -88 -21 -186 -43 l-178
-42 -42 38 c-163 147 -597 559 -597 567 0 10 47 295 56 340 l6 27 42 -37 c23
-21 237 -220 475 -443z m-355 -324 l277 -260 -39 -40 c-22 -23 -364 -390 -762
-816 -397 -426 -737 -789 -754 -807 l-31 -32 -291 274 -292 273 791 846 c689
737 792 844 807 833 9 -7 141 -129 294 -271z m-1708 -1798 l174 -163 -44 -42
c-73 -70 -71 -70 -276 121 -87 82 -109 109 -110 137 0 14 67 109 77 109 2 0
83 -73 179 -162z"/>
<path d="M1966 2266 c-46 -17 -66 -36 -299 -284 -102 -108 -194 -215 -209
-244 -46 -84 -35 -183 30 -258 48 -57 104 -83 177 -84 103 -1 127 17 368 275
119 127 224 247 234 267 12 25 18 59 18 108 0 61 -4 77 -30 120 -59 94 -185
138 -289 100z m139 -171 c52 -51 44 -66 -170 -295 -252 -270 -247 -265 -305
-235 -32 16 -46 51 -37 88 5 19 335 383 403 445 33 29 78 29 109 -3z"/>
<path d="M4324 3997 c-33 -19 -356 -267 -391 -300 -60 -56 -31 -137 48 -137
28 1 63 23 204 131 263 201 255 194 255 239 0 63 -62 99 -116 67z"/>
<path d="M4605 3719 c-266 -141 -448 -244 -460 -262 -21 -30 -19 -59 6 -91 37
-47 66 -38 322 100 127 69 238 131 244 138 7 6 15 26 19 43 5 27 1 37 -24 63
-36 36 -54 37 -107 9z"/>
</g>
</svg>
