<?xml version="1.0" standalone="no"?>
<!DOCTYPE svg PUBLIC "-//W3C//DTD SVG 20010904//EN"
 "http://www.w3.org/TR/2001/REC-SVG-20010904/DTD/svg10.dtd">
<svg version="1.0" xmlns="http://www.w3.org/2000/svg"
 width="512.000000pt" height="512.000000pt" viewBox="0 0 512.000000 512.000000"
 preserveAspectRatio="xMidYMid meet">

<g transform="translate(0.000000,512.000000) scale(0.100000,-0.100000)"
fill="#000000" stroke="none">
<path d="M105 5101 c-48 -22 -69 -44 -90 -94 -13 -31 -15 -122 -15 -664 0
-618 0 -627 21 -671 23 -47 74 -86 126 -97 78 -16 179 49 202 130 7 26 11 174
11 420 l0 380 583 -582 c403 -403 593 -587 619 -598 49 -20 94 -19 143 4 48
22 69 44 90 94 19 46 19 88 0 135 -11 26 -195 216 -598 620 l-582 582 380 0
c246 0 394 4 420 11 81 23 146 124 130 202 -11 52 -50 103 -97 126 -44 21 -53
21 -674 21 -589 0 -632 -2 -669 -19z"/>
<path d="M3672 5099 c-47 -24 -86 -75 -97 -126 -16 -78 49 -179 130 -202 26
-7 174 -11 420 -11 l380 0 -582 -582 c-403 -404 -587 -594 -598 -620 -20 -49
-19 -94 4 -143 22 -48 44 -69 94 -90 46 -19 88 -19 135 0 26 11 216 195 620
598 l582 582 0 -380 c0 -246 4 -394 11 -420 23 -81 124 -146 202 -130 52 11
103 50 126 97 21 44 21 53 21 671 0 542 -2 633 -15 664 -21 50 -42 72 -90 94
-37 17 -80 19 -670 19 -624 0 -630 0 -673 -21z"/>
<path d="M1580 1819 c-19 -11 -302 -287 -627 -612 l-593 -592 0 380 c0 246 -4
394 -11 420 -23 81 -124 146 -202 130 -52 -11 -103 -50 -126 -97 -21 -44 -21
-53 -21 -674 0 -589 2 -632 19 -669 22 -48 44 -69 94 -90 31 -13 122 -15 664
-15 618 0 627 0 671 21 47 23 86 74 97 126 16 78 -49 179 -130 202 -26 7 -174
11 -420 11 l-380 0 597 597 c328 329 604 613 613 632 40 81 -2 204 -81 237
-49 21 -123 18 -164 -7z"/>
<path d="M3375 1826 c-37 -16 -70 -52 -84 -89 -16 -41 -13 -113 5 -150 9 -18
284 -301 612 -630 l597 -597 -380 0 c-246 0 -394 -4 -420 -11 -81 -23 -146
-124 -130 -202 11 -52 50 -103 97 -126 44 -21 53 -21 674 -21 589 0 632 2 669
19 48 22 69 44 90 94 13 31 15 122 15 664 0 618 0 627 -21 671 -23 47 -74 86
-126 97 -78 16 -179 -49 -202 -130 -7 -26 -11 -174 -11 -420 l0 -380 -597 597
c-329 328 -612 603 -630 612 -39 19 -117 20 -158 2z"/>
</g>
</svg>
