<?xml version="1.0" standalone="no"?>
<!DOCTYPE svg PUBLIC "-//W3C//DTD SVG 20010904//EN"
 "http://www.w3.org/TR/2001/REC-SVG-20010904/DTD/svg10.dtd">
<svg version="1.0" xmlns="http://www.w3.org/2000/svg"
 width="512.000000pt" height="512.000000pt" viewBox="0 0 512.000000 512.000000"
 preserveAspectRatio="xMidYMid meet">

<g transform="translate(0.000000,512.000000) scale(0.100000,-0.100000)"
fill="#000000" stroke="none">
<path d="M1972 4384 c-342 -167 -627 -304 -633 -304 -6 0 -273 108 -592 239
-320 132 -589 240 -597 241 -32 5 -51 -1 -70 -20 -20 -20 -20 -33 -20 -1844 0
-1722 1 -1825 18 -1844 9 -12 242 -130 517 -263 275 -133 555 -268 622 -301
l122 -59 634 254 634 254 687 -249 c378 -136 700 -248 716 -248 19 0 35 9 49
26 20 26 21 38 21 374 0 336 -1 348 -21 374 -28 36 -80 36 -108 0 -20 -26 -21
-39 -21 -310 0 -156 -3 -284 -8 -284 -6 0 -530 188 -1122 403 l-115 42 -5 189
-5 189 -27 20 c-17 13 -34 17 -50 13 -53 -14 -53 -12 -58 -218 l-5 -192 -555
-222 -555 -222 -3 1761 c-1 969 1 1764 5 1768 11 10 1095 539 1105 539 4 0 8
-173 8 -383 0 -359 1 -385 18 -400 25 -23 78 -21 102 3 19 19 20 33 20 411 0
309 3 390 13 386 6 -2 288 -89 625 -193 l612 -189 0 -283 c0 -329 3 -341 77
-342 22 0 38 8 52 26 20 26 21 38 21 346 0 199 -4 327 -10 338 -6 11 -19 24
-30 30 -10 6 -268 87 -572 181 -304 93 -623 192 -709 220 -86 27 -158 49 -160
48 -2 0 -284 -137 -627 -305z m-1223 -224 l521 -215 0 -1757 c0 -967 -2 -1758
-4 -1758 -2 0 -239 114 -527 254 l-524 253 -3 1722 c-1 1015 2 1721 7 1719 5
-1 243 -100 530 -218z"/>
<path d="M2991 3649 c-456 -56 -837 -367 -986 -801 -44 -127 -59 -224 -59
-378 0 -162 15 -254 65 -398 79 -225 220 -414 418 -560 375 -279 900 -306
1301 -67 l75 45 460 -460 c316 -315 472 -464 497 -475 70 -28 173 -9 232 43
30 26 66 113 66 157 -1 87 -17 106 -496 586 l-455 456 41 65 c122 196 186 478
161 716 -31 299 -150 543 -363 748 -168 161 -358 261 -589 308 -97 20 -274 27
-368 15z m384 -168 c378 -94 672 -389 768 -771 31 -123 31 -358 -1 -483 -60
-238 -204 -456 -394 -595 -500 -366 -1214 -218 -1520 317 -101 177 -144 355
-135 566 8 205 59 362 171 529 160 241 398 396 690 452 99 19 317 11 421 -15z
m1535 -2725 c0 -41 -26 -66 -69 -66 -34 0 -60 24 -480 444 l-444 444 49 50 49
50 448 -446 c386 -386 447 -451 447 -476z"/>
<path d="M2960 3315 c-205 -41 -399 -166 -528 -340 -57 -77 -93 -148 -128
-255 -26 -79 -28 -97 -28 -245 -1 -186 10 -238 79 -381 85 -175 223 -314 398
-399 125 -60 190 -76 338 -82 201 -9 351 32 514 138 338 220 474 652 326 1035
-83 214 -278 407 -492 488 -145 54 -332 70 -479 41z m340 -151 c87 -20 212
-82 283 -141 261 -218 337 -587 181 -883 -94 -180 -264 -314 -464 -367 -86
-23 -253 -23 -340 0 -86 23 -211 85 -282 142 -109 86 -208 241 -245 385 -22
87 -22 254 1 340 101 387 474 613 866 524z"/>
</g>
</svg>
