<?xml version="1.0" standalone="no"?>
<!DOCTYPE svg PUBLIC "-//W3C//DTD SVG 20010904//EN"
 "http://www.w3.org/TR/2001/REC-SVG-20010904/DTD/svg10.dtd">
<svg version="1.0" xmlns="http://www.w3.org/2000/svg"
 width="512.000000pt" height="512.000000pt" viewBox="0 0 512.000000 512.000000"
 preserveAspectRatio="xMidYMid meet">

<g transform="translate(0.000000,512.000000) scale(0.100000,-0.100000)"
fill="#000000" stroke="none">
<path d="M2393 5105 c-195 -35 -364 -120 -507 -255 -163 -154 -263 -338 -301
-556 -22 -129 -22 -1659 0 -1788 75 -427 409 -751 842 -815 287 -43 589 54
807 259 163 154 263 338 301 556 22 128 22 1659 0 1788 -53 302 -239 561 -508
706 -192 104 -427 143 -634 105z m382 -329 c205 -70 362 -227 432 -430 l28
-81 0 -865 0 -865 -31 -86 c-62 -174 -178 -305 -339 -385 -201 -99 -409 -99
-610 0 -161 80 -277 211 -339 385 l-31 86 0 865 0 865 24 70 c49 147 148 278
269 359 133 87 240 117 402 113 93 -3 130 -9 195 -31z"/>
<path d="M799 2796 c-56 -38 -71 -88 -64 -205 24 -367 130 -678 332 -970 85
-123 315 -353 443 -444 175 -123 446 -242 665 -291 55 -12 207 -36 231 -36 2
0 4 -121 4 -270 l0 -269 -368 -3 -369 -3 -37 -29 c-94 -71 -84 -206 19 -256
40 -20 62 -20 905 -20 843 0 865 0 905 20 103 50 113 185 19 256 l-37 29 -369
3 -368 3 0 269 c0 149 2 270 4 270 24 0 176 24 231 36 219 49 490 168 665 291
128 91 358 321 443 444 202 292 308 603 332 971 7 117 -10 171 -67 206 -42 26
-115 29 -158 7 -58 -30 -73 -66 -82 -199 -23 -340 -125 -615 -324 -871 -390
-503 -1074 -709 -1677 -504 -489 167 -862 568 -988 1063 -25 97 -49 268 -49
351 0 109 -58 175 -154 175 -38 0 -61 -6 -87 -24z"/>
</g>
</svg>
