<?xml version="1.0" standalone="no"?>
<!DOCTYPE svg PUBLIC "-//W3C//DTD SVG 20010904//EN"
 "http://www.w3.org/TR/2001/REC-SVG-20010904/DTD/svg10.dtd">
<svg version="1.0" xmlns="http://www.w3.org/2000/svg"
 width="512.000000pt" height="512.000000pt" viewBox="0 0 512.000000 512.000000"
 preserveAspectRatio="xMidYMid meet">

<g transform="translate(0.000000,512.000000) scale(0.100000,-0.100000)"
fill="#000000" stroke="none">
<path d="M1084 5111 c-47 -12 -133 -62 -160 -94 -14 -17 -37 -53 -52 -81 l-27
-51 0 -2325 0 -2325 27 -51 c40 -76 70 -107 140 -145 l63 -34 839 -3 838 -3
-29 38 c-17 21 -41 57 -54 80 l-24 43 -771 2 -771 3 -37 29 c-72 54 -66 -144
-64 2379 l3 2284 29 37 c46 61 69 66 296 66 110 0 200 -3 200 -7 0 -5 5 -37
11 -73 12 -76 44 -137 96 -179 75 -62 80 -62 624 -59 485 3 495 3 534 25 85
46 137 127 150 236 l7 58 174 -3 c189 -3 200 -6 248 -72 21 -27 21 -33 24
-1211 l2 -1183 34 -6 c18 -4 54 -17 80 -30 l46 -23 -2 1226 -3 1226 -22 47
c-27 60 -101 134 -161 161 l-47 22 -1105 2 c-608 0 -1119 -2 -1136 -6z m1701
-193 c-9 -54 -18 -71 -51 -97 -26 -21 -36 -21 -496 -21 l-470 0 -34 34 c-19
19 -34 44 -34 58 0 12 -3 33 -6 46 l-6 22 552 0 552 0 -7 -42z"/>
<path d="M1410 3191 c-83 -26 -141 -74 -181 -151 -35 -66 -33 -176 3 -245 130
-247 496 -178 525 98 17 164 -117 310 -281 306 -23 0 -52 -4 -66 -8z m154
-190 c26 -27 31 -39 31 -81 0 -43 -5 -54 -33 -82 -28 -28 -39 -33 -82 -33 -43
0 -54 5 -82 33 -28 28 -33 39 -33 81 0 52 25 92 70 112 37 16 96 3 129 -30z"/>
<path d="M2130 3191 c-83 -26 -141 -74 -181 -151 -34 -66 -33 -176 3 -245 64
-123 197 -180 333 -141 110 33 195 148 195 266 0 115 -85 233 -190 264 -57 17
-118 19 -160 7z m124 -166 c73 -35 86 -129 27 -189 -27 -26 -39 -31 -81 -31
-43 0 -54 5 -82 33 -28 28 -33 39 -33 81 0 93 84 146 169 106z"/>
<path d="M2916 3104 c-57 -21 -102 -58 -133 -112 l-28 -47 -3 -686 -3 -686
-77 77 c-89 88 -134 112 -218 118 -47 3 -72 -1 -112 -18 -179 -77 -186 -278
-20 -570 24 -41 144 -284 268 -539 253 -521 268 -545 388 -603 l67 -33 455 0
455 0 55 26 c125 59 159 115 194 320 58 337 76 579 76 1034 0 421 -2 436 -78
515 -73 75 -177 97 -273 56 -12 -5 -20 4 -34 40 -45 118 -153 177 -275 151
-35 -7 -36 -6 -49 29 -7 20 -29 54 -49 76 -65 72 -149 99 -238 75 l-51 -13 -7
164 c-3 91 -6 226 -6 301 -1 88 -6 149 -14 174 -47 132 -169 195 -290 151z
m120 -165 c17 -19 20 -44 25 -263 4 -132 7 -512 8 -844 l1 -604 29 -29 c37
-37 65 -37 102 0 l29 29 0 437 c0 295 4 443 11 457 6 11 30 28 54 39 35 15 48
17 74 8 61 -21 61 -24 61 -499 0 -453 2 -477 45 -494 32 -12 69 -6 92 16 l23
21 0 357 c0 350 0 358 21 384 27 35 57 46 90 34 42 -15 49 -45 49 -217 0 -87
3 -247 7 -357 6 -189 7 -199 29 -221 30 -30 66 -29 101 1 l28 24 0 265 0 265
24 26 c49 52 113 54 156 6 19 -21 20 -36 19 -464 0 -468 -10 -602 -65 -929
-24 -138 -35 -166 -81 -199 l-33 -23 -415 -3 c-460 -3 -465 -3 -530 61 -22 22
-81 132 -188 352 -86 176 -213 433 -283 572 -163 321 -182 381 -138 437 28 36
79 35 133 -1 55 -38 143 -160 210 -291 30 -60 63 -112 72 -116 31 -12 68 -6
91 16 l23 21 0 845 0 844 29 29 c35 34 70 37 97 8z"/>
<path d="M1410 2471 c-83 -26 -141 -74 -181 -151 -35 -66 -33 -176 3 -245 130
-247 496 -178 525 98 17 164 -117 310 -281 306 -23 0 -52 -4 -66 -8z m154
-190 c26 -27 31 -39 31 -81 0 -43 -5 -54 -33 -82 -28 -28 -39 -33 -82 -33 -43
0 -54 5 -82 33 -28 28 -33 39 -33 81 0 52 25 92 70 112 37 16 96 3 129 -30z"/>
<path d="M2110 2465 c-60 -19 -125 -75 -158 -139 -38 -73 -38 -179 0 -252 64
-121 199 -178 333 -140 45 14 69 29 110 69 115 116 115 278 0 394 -78 77 -178
101 -285 68z m144 -160 c73 -35 86 -129 27 -189 -27 -26 -39 -31 -81 -31 -43
0 -54 5 -82 33 -28 28 -33 39 -33 81 0 93 84 146 169 106z"/>
<path d="M1410 1751 c-83 -26 -141 -74 -181 -151 -35 -66 -33 -176 3 -245 130
-247 496 -178 525 98 17 164 -117 310 -281 306 -23 0 -52 -4 -66 -8z m154
-190 c26 -27 31 -39 31 -81 0 -43 -5 -54 -33 -82 -28 -28 -39 -33 -82 -33 -43
0 -54 5 -82 33 -28 28 -33 39 -33 81 0 52 25 92 70 112 37 16 96 3 129 -30z"/>
<path d="M2055 1718 c-38 -21 -77 -63 -103 -113 -22 -41 -26 -63 -26 -125 0
-116 50 -198 153 -250 40 -20 43 -20 37 -3 -35 88 -67 202 -72 259 -7 73 7
168 32 217 16 29 11 33 -21 15z"/>
<path d="M2130 1031 c-84 -27 -141 -74 -181 -151 -35 -66 -33 -176 3 -245 87
-165 298 -205 434 -81 l49 43 -107 219 c-106 218 -107 219 -140 221 -18 1 -44
-2 -58 -6z m157 -195 c105 -114 -62 -265 -172 -156 -56 56 -35 158 40 191 40
18 98 2 132 -35z"/>
</g>
</svg>
