<?xml version="1.0" standalone="no"?>
<!DOCTYPE svg PUBLIC "-//W3C//DTD SVG 20010904//EN"
 "http://www.w3.org/TR/2001/REC-SVG-20010904/DTD/svg10.dtd">
<svg version="1.0" xmlns="http://www.w3.org/2000/svg"
 width="512.000000pt" height="512.000000pt" viewBox="0 0 512.000000 512.000000"
 preserveAspectRatio="xMidYMid meet">

<g transform="translate(0.000000,512.000000) scale(0.100000,-0.100000)"
fill="#000000" stroke="none">
<path d="M1475 4776 c-62 -28 -111 -77 -139 -136 -20 -44 -21 -58 -21 -440 l0
-395 24 -48 c31 -63 101 -123 164 -142 28 -8 88 -15 133 -15 l82 0 11 -32 c5
-18 35 -127 66 -243 45 -172 60 -214 81 -232 52 -47 57 -44 344 242 l265 265
1185 2 1185 3 41 22 c53 28 99 74 127 127 22 40 22 47 22 446 l0 405 -30 54
c-16 29 -45 66 -64 82 -77 63 36 59 -1775 59 l-1651 0 -50 -24z m3363 -152
c50 -35 52 -47 52 -424 0 -294 -2 -356 -15 -380 -33 -64 43 -60 -1262 -60
l-1187 0 -228 -227 c-125 -125 -229 -225 -231 -222 -3 2 -26 85 -52 184 -51
196 -66 238 -86 251 -8 5 -76 11 -151 14 l-138 5 -32 33 -33 32 -3 345 c-3
385 0 414 51 445 31 20 63 20 1662 20 1461 0 1633 -2 1653 -16z"/>
<path d="M2389 4491 c-25 -26 -29 -37 -29 -85 0 -31 -3 -56 -7 -56 -5 0 -26
11 -48 25 -52 31 -89 32 -120 0 -47 -46 -30 -100 46 -144 l50 -29 -38 -22
c-62 -37 -83 -61 -83 -92 0 -41 14 -63 50 -78 28 -12 36 -10 89 17 l59 30 4
-63 c4 -68 24 -101 63 -104 72 -7 95 18 95 106 0 36 3 64 8 62 4 -2 32 -16 62
-31 63 -32 96 -28 125 17 28 43 12 82 -52 123 l-55 35 51 31 c75 46 89 100 38
147 -29 28 -61 25 -123 -11 l-54 -30 0 66 c0 57 -3 69 -25 90 -33 33 -70 32
-106 -4z"/>
<path d="M3130 4492 c-27 -27 -30 -37 -30 -90 l0 -60 -52 29 c-63 34 -87 36
-122 8 -23 -18 -27 -28 -24 -63 3 -37 8 -44 53 -74 28 -19 51 -37 53 -41 1 -3
-12 -15 -30 -25 -78 -45 -100 -97 -60 -144 29 -36 61 -36 125 -2 l57 30 0 -59
c0 -48 5 -65 23 -86 29 -35 78 -37 112 -5 22 20 25 32 25 87 l0 63 60 -31 c61
-32 87 -32 122 -2 46 40 25 106 -46 144 -25 13 -46 27 -46 30 0 3 18 15 40 28
46 25 80 65 80 93 0 27 -53 78 -81 78 -12 0 -46 -14 -76 -30 l-53 -30 0 64 c0
74 -17 102 -67 112 -27 5 -37 1 -63 -24z"/>
<path d="M3885 4508 c-35 -20 -44 -42 -45 -105 l0 -61 -52 29 c-63 34 -87 36
-122 8 -20 -16 -26 -29 -26 -58 0 -41 21 -66 78 -95 17 -9 32 -20 32 -24 0 -4
-21 -19 -46 -32 -25 -14 -50 -33 -55 -42 -15 -27 -10 -74 9 -96 29 -36 61 -36
125 -2 l57 30 0 -59 c0 -77 24 -111 80 -111 56 0 80 34 80 112 l0 58 59 -30
c63 -33 96 -33 126 0 19 21 23 67 7 96 -6 11 -31 32 -56 45 -26 13 -46 27 -46
30 0 3 17 15 38 27 81 45 100 104 48 149 -36 30 -59 29 -123 -7 l-53 -30 0 59
c0 74 -5 88 -41 106 -33 18 -47 18 -74 3z"/>
<path d="M307 2879 c-84 -20 -163 -82 -205 -163 l-27 -51 0 -1060 0 -1060 22
-47 c30 -66 102 -132 169 -157 54 -21 63 -21 1673 -21 1459 0 1622 2 1665 16
64 22 147 100 177 166 l24 53 3 1019 c3 1128 5 1093 -61 1185 -42 58 -112 106
-177 120 -63 14 -3205 14 -3263 0z m3183 -173 c-14 -13 -369 -326 -788 -695
l-764 -672 -36 33 c-21 18 -373 329 -784 691 -412 362 -748 660 -748 663 0 2
708 4 1572 4 l1573 0 -25 -24z m-2635 -626 c303 -266 563 -495 578 -510 l29
-27 -606 -482 c-333 -265 -610 -479 -616 -476 -11 7 -15 2017 -3 2029 4 3 20
-7 37 -22 17 -16 279 -246 581 -512z m2794 -475 c0 -539 -2 -990 -5 -1002 -4
-13 -9 -23 -13 -23 -7 0 -1166 921 -1194 949 -18 18 0 35 590 554 484 427 609
533 615 519 4 -9 7 -458 7 -997z m-1907 -306 c157 -138 179 -153 212 -145 13
3 92 67 177 141 85 74 159 134 165 133 5 -2 276 -214 601 -473 l590 -470 -773
-3 c-426 -1 -1123 -1 -1549 0 l-775 3 592 472 c326 260 598 471 605 470 6 -1
76 -59 155 -128z"/>
</g>
</svg>
