<?xml version="1.0" standalone="no"?>
<!DOCTYPE svg PUBLIC "-//W3C//DTD SVG 20010904//EN"
 "http://www.w3.org/TR/2001/REC-SVG-20010904/DTD/svg10.dtd">
<svg version="1.0" xmlns="http://www.w3.org/2000/svg"
 width="512.000000pt" height="512.000000pt" viewBox="0 0 512.000000 512.000000"
 preserveAspectRatio="xMidYMid meet">

<g transform="translate(0.000000,512.000000) scale(0.100000,-0.100000)"
fill="#000000" stroke="none">
<path d="M4070 4836 l-605 -152 -3 -746 -2 -745 97 -7 c352 -25 667 -168 919
-420 214 -215 347 -467 403 -766 l19 -105 1 1477 c1 1021 -2 1485 -10 1505
-25 67 -96 114 -171 112 -24 0 -315 -69 -648 -153z"/>
<path d="M973 4782 c-612 -155 -664 -169 -694 -197 -63 -60 -59 45 -59 -1577
0 -1660 -6 -1519 72 -1581 66 -53 66 -53 713 108 325 80 605 150 623 156 l32
11 0 1624 c0 1293 -3 1624 -12 1623 -7 0 -311 -76 -675 -167z"/>
<path d="M2021 3408 c1 -868 5 -1515 10 -1478 69 546 460 1017 982 1186 l87
28 -2 770 -3 770 -530 133 c-291 73 -533 133 -537 133 -5 0 -7 -694 -7 -1542z"/>
<path d="M3306 2820 c-165 -26 -369 -112 -497 -209 -512 -390 -573 -1139 -130
-1604 130 -136 265 -222 441 -281 139 -46 244 -60 394 -53 261 12 493 110 680
288 227 215 346 486 346 789 0 299 -118 571 -338 781 -198 190 -431 287 -707
294 -71 2 -157 0 -189 -5z"/>
<path d="M4474 729 c-32 -33 -92 -85 -131 -116 -43 -33 -70 -60 -66 -67 4 -6
80 -94 170 -196 104 -120 175 -192 198 -203 120 -57 256 31 255 165 -1 24 -9
57 -18 75 -15 28 -304 365 -335 391 -10 9 -27 -2 -73 -49z"/>
</g>
</svg>
