<?xml version="1.0" standalone="no"?>
<!DOCTYPE svg PUBLIC "-//W3C//DTD SVG 20010904//EN"
 "http://www.w3.org/TR/2001/REC-SVG-20010904/DTD/svg10.dtd">
<svg version="1.0" xmlns="http://www.w3.org/2000/svg"
 width="512.000000pt" height="512.000000pt" viewBox="0 0 512.000000 512.000000"
 preserveAspectRatio="xMidYMid meet">

<g transform="translate(0.000000,512.000000) scale(0.100000,-0.100000)"
fill="#000000" stroke="none">
<path d="M2495 4946 c-37 -17 -70 -52 -84 -89 -6 -16 -11 -105 -11 -206 l0
-179 -67 -7 c-98 -10 -283 -51 -388 -86 -128 -43 -374 -168 -484 -247 -275
-197 -468 -421 -615 -717 -42 -82 -89 -192 -107 -244 -35 -107 -75 -284 -85
-383 l-7 -67 -193 -3 c-211 -3 -219 -5 -268 -72 -29 -39 -29 -133 0 -172 49
-67 57 -69 268 -72 l193 -3 7 -67 c32 -313 167 -646 373 -924 300 -404 787
-689 1279 -750 l93 -11 3 -193 c3 -176 5 -195 24 -220 39 -53 71 -69 134 -69
63 0 95 16 134 69 19 25 21 44 24 222 l3 194 28 0 c41 0 193 27 286 51 332 84
637 259 881 503 263 264 437 583 517 947 14 63 29 144 32 181 l7 67 193 3
c212 3 220 5 269 72 29 39 29 133 0 172 -49 67 -57 69 -268 72 l-193 3 -7 67
c-9 91 -51 275 -88 386 -132 400 -416 763 -779 999 -163 106 -365 195 -548
242 -107 27 -259 55 -302 55 l-28 0 -3 194 c-3 212 -6 221 -70 269 -34 25
-113 32 -153 13z m-93 -1060 c3 -249 4 -266 24 -292 39 -53 71 -69 134 -69 63
0 95 16 134 69 20 26 21 43 24 292 3 252 4 264 22 264 47 0 240 -44 333 -76
476 -165 836 -525 1001 -1001 32 -93 76 -286 76 -333 0 -18 -12 -19 -264 -22
-249 -3 -266 -4 -292 -24 -53 -39 -69 -71 -69 -134 0 -63 16 -95 69 -134 26
-20 43 -21 292 -24 249 -3 264 -4 264 -21 0 -40 -32 -191 -60 -283 -159 -517
-551 -909 -1068 -1068 -92 -28 -243 -60 -283 -60 -17 0 -18 15 -21 264 -3 249
-4 266 -24 292 -39 53 -71 69 -134 69 -63 0 -95 -16 -134 -69 -20 -26 -21 -43
-24 -292 l-3 -264 -22 0 c-45 0 -255 49 -342 80 -541 192 -937 650 -1045 1205
-11 58 -20 115 -20 125 0 18 12 19 264 22 249 3 266 4 292 24 53 39 69 71 69
134 0 63 -16 95 -69 134 -26 20 -43 21 -292 24 -252 3 -264 4 -264 22 0 47 44
239 75 329 87 250 204 439 382 617 226 226 495 372 808 439 61 13 122 24 137
24 l27 1 3 -264z"/>
<path d="M2421 3185 c-177 -39 -347 -171 -429 -335 -95 -189 -95 -390 -2 -575
195 -389 709 -475 1014 -170 123 122 183 253 193 420 24 420 -363 749 -776
660z m290 -346 c67 -36 98 -68 137 -143 22 -43 26 -64 26 -136 1 -78 -2 -90
-33 -148 -38 -70 -70 -100 -145 -140 -43 -22 -64 -26 -136 -26 -72 0 -93 4
-136 26 -75 40 -107 70 -145 140 -31 58 -34 70 -33 148 0 100 24 160 89 225
100 100 249 121 376 54z"/>
</g>
</svg>
