<?xml version="1.0" standalone="no"?>
<!DOCTYPE svg PUBLIC "-//W3C//DTD SVG 20010904//EN"
 "http://www.w3.org/TR/2001/REC-SVG-20010904/DTD/svg10.dtd">
<svg version="1.0" xmlns="http://www.w3.org/2000/svg"
 width="512.000000pt" height="512.000000pt" viewBox="0 0 512.000000 512.000000"
 preserveAspectRatio="xMidYMid meet">

<g transform="translate(0.000000,512.000000) scale(0.100000,-0.100000)"
fill="#000000" stroke="none">
<path d="M2855 4943 c-31 -8 -29 -7 -902 -705 l-822 -657 -443 -3 -443 -3 -53
-28 c-70 -37 -128 -97 -161 -166 l-26 -56 0 -765 0 -765 27 -57 c31 -68 95
-133 164 -168 l49 -25 443 -3 443 -3 825 -660 c454 -363 840 -669 857 -679 82
-50 178 -28 230 52 l27 42 0 2266 0 2266 -27 42 c-42 64 -115 93 -188 75z
m-127 -3312 l-3 -929 -677 542 -678 541 0 775 0 775 678 541 677 542 3 -929
c1 -511 1 -1347 0 -1858z m-1708 929 l0 -680 -340 0 -340 0 0 680 0 680 340 0
340 0 0 -680z"/>
<path d="M4245 4289 c-88 -28 -139 -136 -105 -224 6 -15 46 -66 89 -114 365
-403 545 -864 545 -1391 0 -527 -180 -988 -545 -1391 -43 -48 -83 -99 -89
-114 -37 -96 25 -209 127 -230 64 -13 112 10 195 95 360 369 599 892 647 1420
63 676 -167 1347 -634 1848 -37 40 -80 79 -95 87 -38 20 -99 26 -135 14z"/>
<path d="M3778 3810 c-82 -25 -128 -85 -128 -167 0 -56 22 -96 94 -173 464
-490 464 -1330 0 -1820 -72 -77 -94 -117 -94 -173 0 -64 30 -118 83 -148 53
-29 123 -30 169 0 36 23 129 123 199 216 444 589 444 1441 0 2030 -68 91 -162
193 -196 214 -37 23 -91 32 -127 21z"/>
</g>
</svg>
